<svg width="127" height="81" xmlns="http://www.w3.org/2000/svg"><path d="M42 24c4.2-2.1 8.2-4.4 12.4-6.2H.5v50.8C1.1 65.2 6.3 41.3 42 24zm21.1 18.9c-3 1.7-5.8 3.7-8.6 5.8l-4.2-7.3c3.2-2.5 6.7-4.8 10.5-7 20.1-11.6 34.3-16.2 48.4-16.6H72.4l-13.9 7.1c-3.1 1.5-6.1 3-9 4.7-20.6 11.9-26 23.3-22.5 29.3 3.4 5.8 16.5 7.8 36.9-4 3-1.7 5.8-3.7 8.6-5.8l4.2 7.3c-3.2 2.5-6.7 4.8-10.5 7C45.8 75.2 33 79.2 17.5 80.3h37l14-7.4c3.1-1.5 6.1-3 9-4.7 20.6-11.9 26-23.3 22.5-29.3-3.3-5.9-16.4-7.8-36.9 4zM10.7 4.8c-.8-1-1.8-1.4-2.9-1.4-.5 0-1 .1-1.4.3-.4.2-.8.4-1.1.8-.3.3-.6.7-.7 1.1-.2.4-.3.9-.3 1.4 0 .5.1 1 .3 1.4.2.4.4.8.7 1.1.3.3.7.6 1.1.8.4.2.9.3 1.4.3 1.1 0 2.1-.5 2.9-1.4v4l-.3.1c-.5.2-1 .3-1.5.4-.4.1-.9.1-1.3.1-.9 0-1.8-.2-2.6-.5s-1.6-.8-2.2-1.4c-.6-.6-1.1-1.3-1.5-2.2C.9 8.9.7 7.9.7 6.9c0-1 .2-1.9.6-2.8.4-.8.9-1.6 1.5-2.2C3.4 1.3 4.2.8 5 .5 5.8.2 6.7 0 7.6 0c.5 0 1 .1 1.5.2s1 .3 1.6.5v4.1zM12.5 7c0-1 .2-1.9.5-2.7.3-.8.9-1.6 1.5-2.2.6-.6 1.4-1.1 2.3-1.5.9-.4 1.9-.5 2.9-.5s2 .2 2.9.5c.9.4 1.7.8 2.3 1.5.6.6 1.1 1.4 1.5 2.2.4.8.5 1.7.5 2.7 0 1-.2 1.9-.5 2.7-.4.8-.9 1.6-1.5 2.2-.6.6-1.4 1.1-2.3 1.5-.9.4-1.9.5-2.9.5-1.1 0-2-.2-2.9-.5-.9-.4-1.6-.8-2.3-1.5-.6-.6-1.1-1.4-1.5-2.2-.3-.8-.5-1.7-.5-2.7zM16 7c0 .5.1 1 .3 1.4.2.4.5.8.8 1.1.3.3.7.6 1.2.8.4.2.9.3 1.4.3.5 0 1-.1 1.4-.3.4-.2.8-.4 1.2-.8.3-.3.6-.7.8-1.1.2-.4.3-.9.3-1.4 0-.5-.1-1-.3-1.4-.2-.4-.5-.8-.8-1.1-.3-.3-.7-.6-1.2-.8-.4-.2-.9-.3-1.4-.3-.5 0-1 .1-1.4.3-.4.2-.8.4-1.2.8-.3.3-.6.7-.8 1.1-.2.4-.3.9-.3 1.4zm23.9 6.5h-4.2l-3.2-5v5h-3.4V.5h5.3c.7 0 1.4.1 1.9.3.5.2 1 .5 1.3.9.4.4.6.8.8 1.3.2.5.3 1 .3 1.6 0 1-.2 1.8-.7 2.4-.5.6-1.2 1-2.1 1.3l4 5.2zm-7.4-7.2h.6c.7 0 1.2-.1 1.5-.4.4-.3.5-.7.5-1.2s-.2-.9-.5-1.2c-.4-.3-.9-.4-1.5-.4h-.6v3.2zm16.2-3h-4v2.2h3.8v2.9h-3.8v2.2h4v2.9h-7.4V.5h7.4v2.8zm15.5.5c-.4-.3-.7-.5-1.1-.7-.4-.1-.7-.2-1.1-.2-.4 0-.8.1-1.1.3-.3.2-.4.5-.4.8 0 .2.1.4.2.6.1.2.3.3.5.4.2.1.5.2.8.3.3.1.6.2.8.3 1.1.4 1.9.9 2.4 1.5s.8 1.4.8 2.4c0 .7-.1 1.3-.3 1.8-.2.5-.6 1-1 1.4-.4.4-1 .7-1.6.9-.6.2-1.3.3-2.1.3-1.6 0-3.2-.5-4.6-1.5l1.5-2.7c.5.5 1 .8 1.5 1 .5.2 1 .3 1.5.3.6 0 1-.1 1.2-.4.3-.3.4-.5.4-.9 0-.2 0-.4-.1-.5-.1-.1-.2-.3-.3-.4l-.6-.3-.9-.3c-.4-.1-.9-.3-1.3-.5s-.8-.4-1.1-.7c-.3-.3-.6-.6-.8-1-.2-.4-.3-1-.3-1.6 0-.6.1-1.2.3-1.8.2-.5.5-1 .9-1.3.4-.4.9-.7 1.4-.9.6-.2 1.2-.3 1.9-.3.6 0 1.3.1 2 .3.7.2 1.4.4 2 .8l-1.4 2.6zM66.6.5h4L73 4.1 75.4.5h4l-4.8 6.8v6.3h-3.4V7.3L66.6.5zm20.7 3.3c-.4-.3-.7-.5-1.1-.7-.4-.1-.7-.2-1.1-.2-.4 0-.8.1-1.1.3-.3.2-.4.5-.4.8 0 .2.1.4.2.6.1.2.3.3.5.4.2.1.5.2.8.3.3.1.6.2.8.3 1.1.4 1.9.9 2.4 1.5s.8 1.4.8 2.4c0 .7-.1 1.3-.3 1.8-.2.5-.6 1-1 1.4-.4.4-1 .7-1.6.9-.6.2-1.3.3-2.1.3-1.6 0-3.2-.5-4.6-1.5L81 9.7c.5.5 1 .8 1.5 1 .5.2 1 .3 1.5.3.6 0 1-.1 1.2-.4.3-.3.4-.5.4-.9 0-.2 0-.4-.1-.5-.1-.1-.2-.3-.3-.4l-.6-.3-.9-.3c-.4-.1-.9-.3-1.3-.5s-.8-.4-1.1-.7c-.3-.3-.6-.6-.8-1-.2-.4-.3-1-.3-1.6 0-.6.1-1.2.3-1.8.2-.5.5-1 .9-1.3.4-.4.9-.7 1.4-.9.6-.2 1.2-.3 1.9-.3.6 0 1.3.1 2 .3.7.2 1.4.4 2 .8l-1.4 2.6zm9-.5v10.2H93V3.3h-2.8V.4h9v2.9h-2.9zm11.7 0h-4v2.2h3.8v2.9H104v2.2h4v2.9h-7.4V.5h7.4v2.8zm1.9 10.2l2.2-13h3.4l2.6 7 2.6-7h3.4l2.2 13h-3.4L121.8 6l-3.1 7.5h-1.3L114.5 6l-1.1 7.5h-3.5zm16.3 16.1c-4.5 10.7-14.9 28.5-41.2 44.2-4.1 2.4-8.2 4.4-12.4 6.2l-.2.3h53.7l.1-50.7zm-2 48.6h-15l4.6-4.8c1.2-1.3 2.2-2.3 2.9-3.2.7-.9 1.2-1.6 1.5-2.2.3-.6.5-1.1.6-1.5.1-.4.1-.7.1-1 0-.3 0-.6-.1-.8-.1-.3-.2-.5-.4-.7-.2-.2-.4-.4-.7-.5-.3-.1-.6-.2-.9-.2-.7 0-1.2.2-1.5.6-.4.4-.6 1-.6 1.6 0 .2 0 .4.1.8h-5.3c0-1.1.2-2.1.5-3 .4-.9.9-1.7 1.5-2.3.6-.6 1.4-1.1 2.3-1.5.9-.3 1.8-.5 2.9-.5 1 0 2 .2 2.9.5.9.3 1.6.8 2.3 1.4.6.6 1.1 1.3 1.5 2.1.4.8.5 1.7.5 2.7 0 1-.2 2-.7 2.8-.4.9-1.1 1.7-2.1 2.7l-3.1 2.9h6v4.1h.2z" fill="#000" fill-rule="nonzero"/></svg>